<?xml version="1.0" encoding="UTF-8"?>
<svg width="172px" height="26px" viewBox="0 0 172 26" version="1.1" xmlns="http://www.w3.org/2000/svg" xmlns:xlink="http://www.w3.org/1999/xlink">
    <!-- Generator: Sketch 61.2 (89653) - https://sketch.com -->
    <title>Logo</title>
    <desc>Created with Sketch.</desc>
    <g id="austin-regnery.com" stroke="none" stroke-width="1" fill="none" fill-rule="evenodd">
        <g id="Artboard" transform="translate(-819.000000, -781.000000)" fill="#FFFFFF">
            <g id="Logo" transform="translate(819.000000, 781.000000)">
                <path d="M8.60392761,18.7893219 C8.60392761,22.742485 11.8774452,25.9471512 15.9155312,25.9471512 C19.9536209,25.9471512 23.2271347,22.742485 23.2271347,18.7893219 C23.2271347,14.8361588 19.9536209,11.631485 15.9155312,11.631485 C11.8774452,11.631485 8.60392761,14.8361588 8.60392761,18.7893219 Z M21.399231,18.7893143 C21.399231,21.7541809 18.9440994,24.1576843 15.9155312,24.1576843 C12.8869667,24.1576843 10.4318275,21.7541809 10.4318275,18.7893143 C10.4318275,15.82444 12.8869667,13.4209366 15.9155312,13.4209366 C18.9440994,13.4209366 21.399231,15.82444 21.399231,18.7893143 Z" id="Shape"></path>
                <path d="M5.5943856,12.2641504 L4.94812491,12.8968196 L3.65560354,11.6314812 L4.30186422,10.998812 C8.11597833,7.26491247 11.9905373,5.36837593 15.9155321,5.36837593 C19.840527,5.36837593 23.715086,7.26491247 27.5292001,10.998812 L28.1754608,11.6314812 L26.8829394,12.8968196 L26.2366787,12.2641504 C22.739188,8.84021532 19.3021421,7.15783457 15.9155321,7.15783457 C12.5289222,7.15783457 9.09187632,8.84021532 5.5943856,12.2641504 Z" id="Path"></path>
                <path d="M1.92714756,7.80150419 L1.26965022,8.42297825 L0,7.13563911 L0.657497435,6.51416496 C5.23687133,2.18568827 10.1805808,0 15.4585568,0 C20.7365329,0 25.6802424,2.18568827 30.2596163,6.51416496 L30.9171137,7.13563911 L29.6474635,8.42297825 L28.9899661,7.80150419 C24.7344842,3.77917381 20.2340374,1.78945864 15.4585568,1.78945864 C10.6830763,1.78945864 6.18262952,3.77917381 1.92714756,7.80150419 Z" id="Path"></path>
                <path d="M48.832,23.192 C49.744,23.192 50.558,23.052 51.274,22.772 C51.99,22.492 52.594,22.108 53.086,21.62 C53.578,21.132 53.952,20.558 54.208,19.898 C54.464,19.238 54.592,18.532 54.592,17.78 C54.592,17.068 54.474,16.468 54.238,15.98 C54.002,15.492 53.69,15.08 53.302,14.744 C52.914,14.408 52.474,14.13 51.982,13.91 C51.49,13.69 50.986,13.492 50.47,13.316 C49.954,13.14 49.45,12.97 48.958,12.806 C48.466,12.642 48.026,12.448 47.638,12.224 C47.25,12 46.938,11.73 46.702,11.414 C46.466,11.098 46.348,10.7 46.348,10.22 C46.348,9.844 46.416,9.494 46.552,9.17 C46.688,8.846 46.89,8.564 47.158,8.324 C47.426,8.084 47.76,7.894 48.16,7.754 C48.56,7.614 49.02,7.544 49.54,7.544 C50.092,7.544 50.562,7.612 50.95,7.748 C51.338,7.884 51.67,8.034 51.946,8.198 C52.222,8.362 52.45,8.512 52.63,8.648 C52.81,8.784 52.968,8.852 53.104,8.852 C53.232,8.852 53.336,8.822 53.416,8.762 C53.496,8.702 53.572,8.612 53.644,8.492 L53.644,8.492 L54.208,7.388 C53.616,6.812 52.924,6.372 52.132,6.068 C51.34,5.764 50.464,5.612 49.504,5.612 C48.648,5.612 47.89,5.744 47.23,6.008 C46.57,6.272 46.016,6.624 45.568,7.064 C45.12,7.504 44.778,8.008 44.542,8.576 C44.306,9.144 44.188,9.732 44.188,10.34 C44.188,11.1 44.306,11.738 44.542,12.254 C44.778,12.77 45.088,13.2 45.472,13.544 C45.856,13.888 46.294,14.168 46.786,14.384 C47.278,14.6 47.782,14.79 48.298,14.954 C48.814,15.118 49.318,15.278 49.81,15.434 C50.302,15.59 50.74,15.78 51.124,16.004 C51.508,16.228 51.818,16.506 52.054,16.838 C52.29,17.17 52.408,17.596 52.408,18.116 C52.408,18.588 52.328,19.016 52.168,19.4 C52.008,19.784 51.778,20.114 51.478,20.39 C51.178,20.666 50.812,20.88 50.38,21.032 C49.948,21.184 49.456,21.26 48.904,21.26 C48.24,21.26 47.678,21.17 47.218,20.99 C46.758,20.81 46.366,20.612 46.042,20.396 C45.718,20.18 45.448,19.982 45.232,19.802 C45.016,19.622 44.824,19.532 44.656,19.532 C44.544,19.532 44.442,19.562 44.35,19.622 C44.258,19.682 44.18,19.756 44.116,19.844 L44.116,19.844 L43.444,20.948 C44.092,21.636 44.874,22.182 45.79,22.586 C46.706,22.99 47.72,23.192 48.832,23.192 Z M69.316,23 L69.316,5.804 L66.988,5.804 L66.988,23 L69.316,23 Z M90.424,23.192 C91.136,23.192 91.796,23.154 92.404,23.078 C93.012,23.002 93.582,22.886 94.114,22.73 C94.646,22.574 95.146,22.38 95.614,22.148 C96.082,21.916 96.532,21.644 96.964,21.332 L96.964,21.332 L96.964,14.732 L91.684,14.732 L91.684,16.052 C91.684,16.18 91.73,16.288 91.822,16.376 C91.914,16.464 92.036,16.508 92.188,16.508 L92.188,16.508 L94.852,16.508 L94.852,20.3 C94.548,20.46 94.244,20.602 93.94,20.726 C93.636,20.85 93.312,20.956 92.968,21.044 C92.624,21.132 92.258,21.198 91.87,21.242 C91.482,21.286 91.056,21.308 90.592,21.308 C89.664,21.308 88.816,21.152 88.048,20.84 C87.28,20.528 86.616,20.076 86.056,19.484 C85.496,18.892 85.062,18.17 84.754,17.318 C84.446,16.466 84.292,15.496 84.292,14.408 C84.292,13.368 84.44,12.43 84.736,11.594 C85.032,10.758 85.456,10.046 86.008,9.458 C86.56,8.87 87.228,8.418 88.012,8.102 C88.796,7.786 89.672,7.628 90.64,7.628 C91.304,7.628 91.878,7.68 92.362,7.784 C92.846,7.888 93.266,8.014 93.622,8.162 C93.978,8.31 94.28,8.464 94.528,8.624 C94.776,8.784 95,8.92 95.2,9.032 C95.352,9.12 95.492,9.164 95.62,9.164 C95.836,9.164 96.012,9.056 96.148,8.84 L96.148,8.84 L96.808,7.784 C96.44,7.448 96.044,7.146 95.62,6.878 C95.196,6.61 94.734,6.382 94.234,6.194 C93.734,6.006 93.192,5.862 92.608,5.762 C92.024,5.662 91.392,5.612 90.712,5.612 C89.368,5.612 88.154,5.824 87.07,6.248 C85.986,6.672 85.062,7.27 84.298,8.042 C83.534,8.814 82.946,9.74 82.534,10.82 C82.122,11.9 81.916,13.096 81.916,14.408 C81.916,15.704 82.126,16.892 82.546,17.972 C82.966,19.052 83.552,19.978 84.304,20.75 C85.056,21.522 85.952,22.122 86.992,22.55 C88.032,22.978 89.176,23.192 90.424,23.192 Z M111.58,23 L111.58,10.748 C111.58,10.588 111.576,10.412 111.568,10.22 C111.56,10.028 111.548,9.832 111.532,9.632 L111.532,9.632 L121.48,22.58 C121.6,22.732 121.722,22.84 121.846,22.904 C121.97,22.968 122.124,23 122.308,23 L122.308,23 L123.484,23 L123.484,5.804 L121.444,5.804 L121.444,17.984 C121.444,18.168 121.448,18.358 121.456,18.554 C121.464,18.75 121.48,18.952 121.504,19.16 L121.504,19.16 L111.544,6.2 C111.416,6.04 111.302,5.934 111.202,5.882 C111.102,5.83 110.948,5.804 110.74,5.804 L110.74,5.804 L109.54,5.804 L109.54,23 L111.58,23 Z M136.516,23 C136.716,23 136.884,22.944 137.02,22.832 C137.156,22.72 137.252,22.592 137.308,22.448 L137.308,22.448 L138.916,18.296 L146.632,18.296 L148.24,22.448 C148.304,22.608 148.4,22.74 148.528,22.844 C148.656,22.948 148.824,23 149.032,23 L149.032,23 L150.832,23 L143.956,5.804 L141.592,5.804 L134.716,23 L136.516,23 Z M145.984,16.616 L139.564,16.616 L142.264,9.632 C142.344,9.424 142.426,9.182 142.51,8.906 C142.594,8.63 142.68,8.328 142.768,8 C142.936,8.648 143.108,9.188 143.284,9.62 L143.284,9.62 L145.984,16.616 Z M171.772,23 L171.772,21.044 L164.332,21.044 L164.332,5.804 L162.004,5.804 L162.004,23 L171.772,23 Z" id="SIGNAL" fill-rule="nonzero"></path>
            </g>
        </g>
    </g>
</svg>