<?xml version="1.0" encoding="UTF-8"?>
<svg width="100px" height="100px" viewBox="0 0 100 100" version="1.1" xmlns="http://www.w3.org/2000/svg" xmlns:xlink="http://www.w3.org/1999/xlink">
    <!-- Generator: Sketch 51.3 (57544) - http://www.bohemiancoding.com/sketch -->
    <title>blueprint</title>
    <desc>Created with Sketch.</desc>
    <defs></defs>
    <g id="austin-regnery.com" stroke="none" stroke-width="1" fill="none" fill-rule="evenodd">
        <g id="Home-Page" transform="translate(-535.000000, -4449.000000)" fill="#FFFFFF" fill-rule="nonzero">
            <g id="Specials" transform="translate(0.000000, 4233.000000)">
                <g id="blueprint" transform="translate(535.000000, 216.000000)">
                    <path d="M93.5483871,19.3548387 L93.5483871,17.4322581 L87.5806452,2.51451613 C86.9725806,0.987096774 85.516129,0 83.8709677,0 C82.2258065,0 80.7693548,0.987096774 80.1612903,2.51451613 L74.1935484,17.4322581 L74.1935484,19.3548387 L28.9370968,19.3548387 C28.1322581,12.1080645 21.9758065,6.4516129 14.516129,6.4516129 C6.51129032,6.4516129 0,12.9645161 0,20.9677419 L0,85.483871 C0,93.4870968 6.51129032,100 14.516129,100 L100,100 L100,19.3548387 L93.5483871,19.3548387 Z M83.1580645,3.70967742 L83.1580645,3.70806452 C83.3919355,3.12258065 84.3516129,3.11935484 84.5854839,3.70967742 L89.5548387,16.1290323 L78.1903226,16.1290323 L83.1580645,3.70967742 Z M90.3225806,19.3548387 L90.3225806,53.2258065 L85.483871,53.2258065 L85.483871,19.3548387 L90.3225806,19.3548387 Z M77.4193548,19.3548387 L82.2580645,19.3548387 L82.2580645,53.2258065 L77.4193548,53.2258065 L77.4193548,19.3548387 Z M77.4193548,56.4516129 L90.3225806,56.4516129 L90.3225806,62.9032258 C90.3225806,63.7919355 89.6,64.516129 88.7096774,64.516129 L79.0322581,64.516129 C78.1419355,64.516129 77.4193548,63.7919355 77.4193548,62.9032258 L77.4193548,56.4516129 Z M29.0322581,70.8435484 C30.4516129,70.6387097 31.8241935,70.1741935 33.066129,69.4564516 L31.45,66.6645161 C30.7,67.0983871 29.8790323,67.3903226 29.0322581,67.5629032 L29.0322581,51.7758065 C32.7080645,52.5258065 35.483871,55.7822581 35.483871,59.6774194 C35.483871,61.5774194 34.8096774,63.4225806 33.5854839,64.8741935 L36.0516129,66.9532258 C37.766129,64.9209677 38.7096774,62.3370968 38.7096774,59.6774194 C38.7096774,54.0016129 34.4935484,49.3032258 29.0322581,48.516129 L29.0322581,45.2564516 C36.2790323,46.0629032 41.9354839,52.2193548 41.9354839,59.6774194 C41.9354839,67.1354839 36.2790323,73.2935484 29.0322581,74.0983871 L29.0322581,70.8435484 Z M29.0322581,85.483871 L29.0322581,77.3370968 C38.0612903,76.5193548 45.1612903,68.916129 45.1612903,59.6774194 C45.1612903,50.4387097 38.0612903,42.8354839 29.0322581,42.0177419 L29.0322581,29.0322581 L32.2580645,29.0322581 L32.2580645,35.966129 L33.4677419,36.2790323 C35.6596774,36.8451613 37.7516129,37.7112903 39.6870968,38.8532258 L40.7645161,39.4903226 L45.666129,34.5870968 L52.5096774,41.4306452 L47.6080645,46.3322581 L48.2435484,47.4080645 C49.3854839,49.3435484 50.2516129,51.4354839 50.8177419,53.6290323 L51.1306452,54.8387097 L58.0645161,54.8387097 L58.0645161,64.516129 L51.1306452,64.516129 L50.8177419,65.7258065 C50.2516129,67.9193548 49.3854839,70.0112903 48.2435484,71.9467742 L47.6080645,73.0225806 L52.5096774,77.9241935 L45.666129,84.7677419 L40.7645161,79.8645161 L39.6870968,80.5016129 C37.7516129,81.6435484 35.6596774,82.5112903 33.4677419,83.0758065 L32.2580645,83.3887097 L32.2580645,90.3225806 L28.1854839,90.3225806 C28.7241935,88.8064516 29.0322581,87.1822581 29.0322581,85.483871 Z M3.22580645,20.9677419 C3.22580645,14.7419355 8.29193548,9.67741935 14.516129,9.67741935 C20.7403226,9.67741935 25.8064516,14.7419355 25.8064516,20.9677419 L25.8064516,76.3806452 C23.1435484,73.083871 19.0741935,70.9677419 14.516129,70.9677419 C9.95806452,70.9677419 5.88870968,73.083871 3.22580645,76.3806452 L3.22580645,20.9677419 Z M14.516129,96.7741935 C8.29193548,96.7741935 3.22580645,91.7096774 3.22580645,85.483871 C3.22580645,79.2580645 8.29193548,74.1935484 14.516129,74.1935484 C20.7403226,74.1935484 25.8064516,79.2580645 25.8064516,85.483871 C25.8064516,91.7096774 20.7403226,96.7741935 14.516129,96.7741935 Z M96.7741935,96.7741935 L23.6193548,96.7741935 C24.7596774,95.8532258 25.7596774,94.7677419 26.5774194,93.5483871 L35.483871,93.5483871 L35.483871,85.8580645 C37.1290323,85.3532258 38.7177419,84.6951613 40.2306452,83.8935484 L45.666129,89.3306452 L57.0709677,77.9258065 L51.6354839,72.4887097 C52.4354839,70.9758065 53.0935484,69.3870968 53.5983871,67.7419355 L61.2903226,67.7419355 L61.2903226,51.6129032 L53.5983871,51.6129032 C53.0951613,49.9677419 52.4354839,48.3790323 51.6354839,46.866129 L57.0709677,41.4290323 L45.666129,30.0241935 L40.2306452,35.4612903 C38.7177419,34.6596774 37.1274194,34.0016129 35.483871,33.4967742 L35.483871,25.8064516 L29.0322581,25.8064516 L29.0322581,22.5806452 L74.1935484,22.5806452 L74.1935484,62.9032258 C74.1935484,65.5709677 76.3645161,67.7419355 79.0322581,67.7419355 L88.7096774,67.7419355 C91.3774194,67.7419355 93.5483871,65.5709677 93.5483871,62.9032258 L93.5483871,22.5806452 L96.7741935,22.5806452 L96.7741935,96.7741935 Z" id="Shape"></path>
                    <path d="M61.2903226,93.5483871 L93.5483871,93.5483871 L93.5483871,70.9677419 L61.2903226,70.9677419 L61.2903226,93.5483871 Z M64.516129,74.1935484 L90.3225806,74.1935484 L90.3225806,90.3225806 L64.516129,90.3225806 L64.516129,74.1935484 Z" id="Shape"></path>
                    <rect id="Rectangle-path" x="74.1935484" y="77.4193548" width="12.9032258" height="3.22580645"></rect>
                    <rect id="Rectangle-path" x="67.7419355" y="77.4193548" width="3.22580645" height="3.22580645"></rect>
                    <rect id="Rectangle-path" x="67.7419355" y="83.8709677" width="12.9032258" height="3.22580645"></rect>
                    <rect id="Rectangle-path" x="83.8709677" y="83.8709677" width="3.22580645" height="3.22580645"></rect>
                    <path d="M14.516129,77.4193548 C10.0693548,77.4193548 6.4516129,81.0370968 6.4516129,85.483871 C6.4516129,89.9306452 10.0693548,93.5483871 14.516129,93.5483871 L14.516129,90.3225806 C11.8483871,90.3225806 9.67741935,88.1516129 9.67741935,85.483871 C9.67741935,82.816129 11.8483871,80.6451613 14.516129,80.6451613 C17.183871,80.6451613 19.3548387,82.816129 19.3548387,85.483871 L22.5806452,85.483871 C22.5806452,81.0370968 18.9629032,77.4193548 14.516129,77.4193548 Z" id="Shape"></path>
                </g>
            </g>
        </g>
    </g>
</svg>