<?xml version="1.0" encoding="UTF-8"?>
<svg width="100px" height="100px" viewBox="0 0 100 100" version="1.1" xmlns="http://www.w3.org/2000/svg" xmlns:xlink="http://www.w3.org/1999/xlink">
    <!-- Generator: Sketch 51.3 (57544) - http://www.bohemiancoding.com/sketch -->
    <title>brickwall</title>
    <desc>Created with Sketch.</desc>
    <defs></defs>
    <g id="austin-regnery.com" stroke="none" stroke-width="1" fill="none" fill-rule="evenodd">
        <g id="Home-Page" transform="translate(-135.000000, -5011.000000)" fill="#FFFFFF" fill-rule="nonzero">
            <g id="Specials" transform="translate(0.000000, 4233.000000)">
                <g id="brickwall" transform="translate(135.000000, 778.000000)">
                    <path d="M98.0080078,0 L1.99199219,0 C0.891992188,0 0,0.891796875 0,1.99199219 L0,98.0080078 C0,99.1082031 0.891992188,100 1.99199219,100 L98.0080078,100 C99.1080078,100 100,99.1082031 100,98.0080078 L100,1.99199219 C100,0.891796875 99.1080078,0 98.0080078,0 Z M3.98398437,3.98398438 L48.0742188,3.98398438 L48.0742188,24.3027344 L3.98398437,24.3027344 L3.98398437,3.98398438 Z M71.7794922,28.2869141 L71.7794922,48.0080078 L28.2205078,48.0080078 L28.2205078,28.2869141 L71.7794922,28.2869141 Z M3.98398438,28.2869141 L24.2363281,28.2869141 L24.2363281,48.0080078 L3.98398438,48.0080078 L3.98398438,28.2869141 Z M3.98398437,51.9919922 L48.0742188,51.9919922 L48.0742188,71.8458984 L3.98398437,71.8458984 L3.98398437,51.9919922 Z M24.2365234,96.0160156 L3.98398438,96.0160156 L3.98398438,75.8300781 L24.2365234,75.8300781 L24.2365234,96.0160156 Z M71.7794922,96.0160156 L28.2205078,96.0160156 L28.2205078,75.8300781 L71.7794922,75.8300781 L71.7794922,96.0160156 Z M96.0160156,96.0160156 L75.7634766,96.0160156 L75.7634766,75.8300781 L82.2708984,75.8300781 C83.3708984,75.8300781 84.2628906,74.9382813 84.2628906,73.8380859 C84.2628906,72.7378906 83.3708984,71.8460937 82.2708984,71.8460937 L52.0583984,71.8460937 L52.0583984,51.9919922 L96.0160156,51.9919922 L96.0160156,96.0160156 Z M96.0160156,48.0080078 L75.7634766,48.0080078 L75.7634766,28.2869141 L96.0160156,28.2869141 L96.0160156,48.0080078 Z M96.0160156,24.3027344 L52.0583984,24.3027344 L52.0583984,3.98398438 L96.0160156,3.98398438 L96.0160156,24.3027344 Z" id="Shape"></path>
                    <path d="M90.6375,71.8460937 L89.4421875,71.8460937 C88.3421875,71.8460937 87.4501953,72.7378906 87.4501953,73.8380859 C87.4501953,74.9382812 88.3421875,75.8300781 89.4421875,75.8300781 L90.6375,75.8300781 C91.7375,75.8300781 92.6294922,74.9382813 92.6294922,73.8380859 C92.6294922,72.7378906 91.7375,71.8460937 90.6375,71.8460937 Z" id="Shape"></path>
                </g>
            </g>
        </g>
    </g>
</svg>