<?xml version="1.0" encoding="UTF-8"?>
<svg width="93px" height="100px" viewBox="0 0 93 100" version="1.1" xmlns="http://www.w3.org/2000/svg" xmlns:xlink="http://www.w3.org/1999/xlink">
    <!-- Generator: Sketch 51.3 (57544) - http://www.bohemiancoding.com/sketch -->
    <title>ferris-wheel</title>
    <desc>Created with Sketch.</desc>
    <defs></defs>
    <g id="austin-regnery.com" stroke="none" stroke-width="1" fill="none" fill-rule="evenodd">
        <g id="Home-Page" transform="translate(-535.000000, -5011.000000)" fill="#FFFFFF" fill-rule="nonzero">
            <g id="Specials" transform="translate(0.000000, 4233.000000)">
                <g id="ferris-wheel" transform="translate(535.000000, 778.000000)">
                    <path d="M0.544585987,17.1617834 C6.35796178,10.3044586 13.2774947,4.6118896 21.1110403,0.242250531 C22.0324841,-0.271549894 23.1963907,0.0585987261 23.7106157,0.980254777 C24.2246285,1.90191083 23.8942675,3.06581741 22.9726115,3.57983015 C15.5409766,7.72526539 8.97579618,13.1265393 3.45987261,19.633121 C3.08195329,20.0789809 2.5433121,20.3082803 2.00127389,20.3082803 C1.56454352,20.3082803 1.12569002,20.159448 0.766666667,19.8549894 C-0.0384288747,19.1726115 -0.137579618,17.9666667 0.544585987,17.1617834 Z M10.7806794,17.1619958 C10.0983015,17.9670913 10.1976645,19.1728238 11.0025478,19.8552017 C11.3617834,20.1596603 11.8006369,20.3084926 12.237155,20.3084926 C12.7791932,20.3084926 13.3176221,20.0789809 13.6957537,19.6333333 C18.2363057,14.2772824 24.0658174,10.0751592 30.5543524,7.48152866 C31.5341826,7.08980892 32.0110403,5.97791932 31.6193206,4.99787686 C31.2278132,4.01825902 30.1163482,3.54076433 29.1356688,3.9329087 C22.070276,6.75711253 15.7231423,11.3318471 10.7806794,17.1619958 Z M82.6464968,77.1675159 C83.3176221,76.3530786 83.2014862,75.1488323 82.3870488,74.477707 C81.5730361,73.8067941 80.3685775,73.9227176 79.6972399,74.737155 C77.4766454,77.4320594 74.9299363,79.8549894 72.1282378,81.9382166 C71.2813163,82.5679406 71.1053079,83.7649682 71.7350318,84.6118896 C72.1101911,85.1161359 72.6861996,85.3825902 73.2698514,85.3825902 C73.666242,85.3825902 74.0660297,85.2596603 74.4084926,85.0050955 C77.4577495,82.7373673 80.2292994,80.1004246 82.6464968,77.1675159 Z M92.2235669,55.3915074 C92.5864119,55.8367304 92.729724,56.4216561 92.6138004,56.9842887 L90.6660297,66.4356688 C90.0953291,69.2055202 88.1696391,70.9955414 85.7600849,70.9955414 L76.9915074,70.9955414 C73.9919321,74.8681529 70.2951168,78.1169851 66.1339703,80.5853503 L71.6653928,96.1416136 L90.0038217,96.1416136 C91.0592357,96.1416136 91.9146497,96.9970276 91.9146497,98.0524416 C91.9146497,99.1078556 91.0592357,99.9632696 90.0038217,99.9632696 L3.00191083,99.9632696 C1.94649682,99.9632696 1.0910828,99.1078556 1.0910828,98.0524416 C1.0910828,96.9970276 1.94649682,96.1416136 3.00191083,96.1416136 L21.340552,96.1416136 L26.8723992,80.5857749 C22.7116773,78.1176221 19.0144374,74.8681529 16.0144374,70.9955414 L7.24585987,70.9955414 C4.83545648,70.9955414 2.90976645,69.2055202 2.33949045,66.4352442 L0.392144374,56.9842887 C0.276220807,56.4216561 0.419532909,55.8367304 0.782377919,55.3915074 C1.14522293,54.9462845 1.68917197,54.6878981 2.26369427,54.6878981 L8.64543524,54.6878981 C8.19002123,52.3025478 7.96008493,49.8664544 7.96008493,47.4169851 C7.96008493,44.9683652 8.19002123,42.5320594 8.64564756,40.1456476 L7.24585987,40.1456476 C4.83545648,40.1456476 2.90976645,38.3556263 2.33949045,35.5853503 L0.392144374,26.1343949 C0.276220807,25.5717622 0.419532909,24.9868365 0.782377919,24.5416136 C1.14522293,24.0963907 1.68917197,23.8380042 2.26369427,23.8380042 L16.014862,23.8380042 C20.9694268,17.4420382 27.8135881,12.7547771 35.5191083,10.4651805 L34.6609342,6.30063694 C34.5450106,5.73800425 34.6883227,5.15307856 35.0511677,4.70785563 C35.4140127,4.2626327 35.9579618,4.00424628 36.5324841,4.00424628 L56.473673,4.00424628 C57.0481953,4.00424628 57.5921444,4.2626327 57.9549894,4.70785563 C58.3178344,5.15307856 58.4611465,5.73800425 58.3452229,6.30063694 L57.4870488,10.4653928 C65.1923567,12.7549894 72.036518,17.4420382 76.9912951,23.8380042 L90.7424628,23.8380042 C91.3169851,23.8380042 91.8609342,24.0963907 92.2237792,24.5416136 C92.5866242,24.9868365 92.7299363,25.5717622 92.6140127,26.1343949 L90.666242,35.5857749 C90.0955414,38.3556263 88.1698514,40.1456476 85.7602972,40.1456476 L84.3605096,40.1456476 C84.8161359,42.5326964 85.0460722,44.9687898 85.0460722,47.4169851 C85.0460722,49.8658174 84.8161359,52.3023355 84.3607219,54.6878981 L90.7426752,54.6878981 C91.3167728,54.6878981 91.8607219,54.9462845 92.2235669,55.3915074 Z M73.1458599,27.659448 L74.6201699,34.8144374 C74.6721868,35.0666667 74.9721868,36.3239915 75.7832272,36.3239915 L85.7600849,36.3239915 C86.5711253,36.3239915 86.8711253,35.0666667 86.9231423,34.8146497 L88.3976645,27.659448 L76.0636943,27.659448 C76.0488323,27.6596603 76.033758,27.6596603 76.018896,27.659448 L73.1458599,27.659448 Z M70.8772824,35.5855626 L70.870913,35.5545648 L53.359448,45.6651805 C53.5027601,46.22569 53.5789809,46.8125265 53.5789809,47.4169851 C53.5789809,48.0214437 53.5027601,48.6082803 53.359448,49.1687898 L69.2044586,58.3167728 L68.9299363,56.9842887 C68.8140127,56.4216561 68.9573248,55.8367304 69.3201699,55.3915074 C69.6830149,54.9462845 70.2269639,54.6878981 70.8014862,54.6878981 L80.4622081,54.6878981 C80.9683652,52.3106157 81.2244161,49.8713376 81.2244161,47.4169851 C81.2244161,44.9636943 80.9683652,42.5242038 80.4619958,40.1456476 L75.7834395,40.1456476 C73.3734607,40.1454352 71.4477707,38.3556263 70.8772824,35.5855626 Z M51.4912951,20.3116773 L48.4138004,20.3116773 L48.4138004,40.6029724 C49.5707006,40.9278132 50.6082803,41.5401274 51.4447983,42.3573248 L70.0579618,31.610828 L68.9295117,26.1341826 C68.8135881,25.5715499 68.9569002,24.9866242 69.3197452,24.5414013 C69.6825902,24.0961783 70.2265393,23.8377919 70.8010616,23.8377919 L71.9864119,23.8377919 C67.8286624,19.3484076 62.5511677,16.0191083 56.7125265,14.2233546 L56.3976645,15.7518047 C55.826327,18.5220807 53.9006369,20.3116773 51.4912951,20.3116773 Z M46.5029724,44.1626327 C44.7087049,44.1626327 43.2488323,45.6225053 43.2488323,47.4169851 C43.2488323,49.2112527 44.7084926,50.6711253 46.5029724,50.6711253 C48.2974522,50.6711253 49.7571125,49.211465 49.7571125,47.4169851 C49.7571125,45.6225053 48.2972399,44.1626327 46.5029724,44.1626327 Z M38.8770701,7.82547771 L40.35138,14.9804671 C40.403397,15.2326964 40.703397,16.4900212 41.5144374,16.4900212 L51.4912951,16.4900212 C52.3021231,16.4900212 52.6025478,15.2322718 52.6545648,14.9802548 L53.3764331,11.4768577 C53.3794055,11.4617834 53.3823779,11.4467091 53.3857749,11.4318471 L54.1288747,7.82569002 L38.8770701,7.82569002 L38.8770701,7.82547771 Z M21.0195329,23.8377919 L22.2048832,23.8377919 C22.7794055,23.8377919 23.3233546,24.0961783 23.6861996,24.5414013 C24.0490446,24.9866242 24.1923567,25.5715499 24.0764331,26.1341826 L22.947983,31.6101911 L41.5615711,42.3569002 C42.3980892,41.5397028 43.4356688,40.9276008 44.5923567,40.6027601 L44.5923567,20.3116773 L41.5146497,20.3116773 C39.1050955,20.3116773 37.1794055,18.5218684 36.6084926,15.7518047 L36.2936306,14.2233546 C30.4545648,16.0191083 25.1770701,19.3484076 21.0195329,23.8377919 Z M17.2225053,40.1454352 L12.543949,40.1454352 C12.0377919,42.5235669 11.781741,44.962845 11.781741,47.4167728 C11.781741,49.8717622 12.0377919,52.3110403 12.5437367,54.6876858 L22.2046709,54.6876858 C22.7791932,54.6876858 23.3231423,54.9460722 23.6859873,55.3912951 C24.0488323,55.836518 24.1921444,56.4214437 24.0762208,56.9840764 L23.8014862,58.3169851 L39.6467091,49.1687898 C39.503397,48.6080679 39.4271762,48.0212314 39.4271762,47.4167728 C39.4271762,46.8123142 39.503397,46.2250531 39.6467091,45.6645435 L22.1350318,35.5541401 L22.1286624,35.5855626 C21.5571125,38.3558386 19.6312102,40.1454352 17.2225053,40.1454352 Z M17.2225053,36.3237792 C18.033121,36.3237792 18.333758,35.0658174 18.3857749,34.8138004 L18.9193206,32.2250531 C18.9237792,32.2019108 18.9284501,32.1787686 18.9335456,32.1556263 L19.8600849,27.659448 L4.60828025,27.659448 L6.08259023,34.8144374 C6.13460722,35.066879 6.4343949,36.3239915 7.24585987,36.3239915 L17.2225053,36.3239915 L17.2225053,36.3237792 Z M19.8600849,58.5095541 L11.0713376,58.5095541 C11.0435244,58.5101911 11.0161359,58.5101911 10.988535,58.5095541 L4.60828025,58.5095541 L6.08259023,65.6645435 C6.13460722,65.9169851 6.4343949,67.1740977 7.24585987,67.1740977 L17.2225053,67.1740977 C18.033121,67.1740977 18.333758,65.9161359 18.3857749,65.6641189 L19.8600849,58.5095541 Z M35.0424628,80.1997877 L34.6609342,78.3481953 C34.5450106,77.7855626 34.6883227,77.2006369 35.0511677,76.755414 C35.4140127,76.3101911 35.9579618,76.0518047 36.5324841,76.0518047 L44.5921444,76.0518047 L44.5921444,54.2305732 C43.4354565,53.9057325 42.3978769,53.2936306 41.5613588,52.4764331 L22.7694268,63.3259023 L22.1286624,66.4356688 C21.8150743,67.9547771 21.0944798,69.1789809 20.1104034,69.9749469 C24.1072187,74.6443737 29.2740977,78.1804671 35.0424628,80.1997877 Z M38.8770701,79.8734607 L40.35138,87.0284501 C40.403397,87.2804671 40.703397,88.5375796 41.5144374,88.5375796 L51.4912951,88.5375796 C52.3023355,88.5375796 52.6025478,87.2802548 52.6545648,87.0280255 L54.1288747,79.8732484 L38.8770701,79.8732484 L38.8770701,79.8734607 Z M62.7184713,82.3868365 C60.9027601,83.2312102 59.0171975,83.9352442 57.0800425,84.4876858 L56.3976645,87.7997877 C55.826327,90.5696391 53.9006369,92.359448 51.4912951,92.359448 L41.5144374,92.359448 C39.1048832,92.359448 37.1791932,90.5696391 36.6082803,87.7997877 L35.9259023,84.4876858 C33.988535,83.9354565 32.1038217,83.2316348 30.2876858,82.3872611 L25.396603,96.1416136 L67.6093418,96.1416136 L62.7184713,82.3868365 Z M72.8951168,69.9751592 C71.9106157,69.1791932 71.1900212,67.9547771 70.8770701,66.4354565 L70.2360934,63.3252654 L51.4447983,52.4760085 C50.6082803,53.2934183 49.5704883,53.9055202 48.4138004,54.2303609 L48.4138004,76.0515924 L56.4734607,76.0515924 C57.047983,76.0515924 57.5919321,76.3099788 57.9547771,76.7552017 C58.3176221,77.2004246 58.4609342,77.7853503 58.3450106,78.347983 L57.963482,80.1993631 C63.7326964,78.1796178 68.8991507,74.6441614 72.8951168,69.9751592 Z M88.3976645,58.5095541 L82.0180467,58.5095541 C81.9902335,58.5101911 81.9622081,58.5101911 81.9341826,58.5095541 L73.1458599,58.5095541 L74.6201699,65.6645435 C74.6721868,65.9167728 74.9721868,67.1740977 75.7832272,67.1740977 L85.7600849,67.1740977 C86.5711253,67.1740977 86.8711253,65.9167728 86.9231423,65.6647558 L88.3976645,58.5095541 Z M77.1488323,90.7437367 C77.5783439,90.7437367 78.0106157,90.5995754 78.3673036,90.304034 C83.1261146,86.3592357 87.533121,81.9397028 91.466242,77.1675159 C92.1373673,76.3530786 92.0212314,75.1488323 91.2070064,74.477707 C90.3927813,73.8065817 89.188535,73.9227176 88.5171975,74.7369427 C84.7373673,79.3233546 80.5019108,83.5707006 75.9284501,87.3617834 C75.1159236,88.0352442 75.003397,89.2399151 75.6766454,90.0524416 C76.0543524,90.5082803 76.5995754,90.7437367 77.1488323,90.7437367 Z" id="XMLID_593_"></path>
                </g>
            </g>
        </g>
    </g>
</svg>