<?xml version="1.0" encoding="UTF-8"?>
<svg width="93px" height="100px" viewBox="0 0 93 100" version="1.1" xmlns="http://www.w3.org/2000/svg" xmlns:xlink="http://www.w3.org/1999/xlink">
    <!-- Generator: Sketch 51.3 (57544) - http://www.bohemiancoding.com/sketch -->
    <title>idea</title>
    <desc>Created with Sketch.</desc>
    <defs></defs>
    <g id="austin-regnery.com" stroke="none" stroke-width="1" fill="none" fill-rule="evenodd">
        <g id="Home-Page" transform="translate(-135.000000, -1400.000000)" fill="#FFFFFF" fill-rule="nonzero">
            <g id="Specials" transform="translate(0.000000, 1184.000000)">
                <g id="idea" transform="translate(135.000000, 216.000000)">
                    <path d="M46.2962963,14.8148148 C28.937037,14.8148148 14.8148148,28.937037 14.8148148,46.2962963 C14.8148148,59.4666667 22.9462963,71.1333333 35.1851852,75.7407407 L35.1851852,92.5925926 C35.1851852,93.6166667 36.012963,94.4444444 37.037037,94.4444444 L38.8888889,94.4444444 L38.8888889,98.1481481 C38.8888889,99.1722222 39.7166667,100 40.7407407,100 L51.8518519,100 C52.8759259,100 53.7037037,99.1722222 53.7037037,98.1481481 L53.7037037,94.4444444 L55.5555556,94.4444444 C56.5796296,94.4444444 57.4074074,93.6166667 57.4074074,92.5925926 L57.4074074,75.7407407 C69.6462963,71.1333333 77.7777778,59.4666667 77.7777778,46.2962963 C77.7777778,28.937037 63.6555556,14.8148148 46.2962963,14.8148148 Z M51.8518519,90.7407407 C50.8277778,90.7407407 50,91.5685185 50,92.5925926 L50,96.2962963 L42.5925926,96.2962963 L42.5925926,92.5925926 C42.5925926,91.5685185 41.7648148,90.7407407 40.7407407,90.7407407 L38.8888889,90.7407407 L38.8888889,81.4814815 L53.7037037,81.4814815 L53.7037037,90.7407407 L51.8518519,90.7407407 Z M54.9777778,72.6703704 C54.2166667,72.9203704 53.7037037,73.6314815 53.7037037,74.4296296 L53.7037037,77.7777778 L38.8888889,77.7777778 L38.8888889,74.4296296 C38.8888889,73.6296296 38.3759259,72.9203704 37.6148148,72.6703704 C26.1944444,68.9148148 18.5185185,58.3148148 18.5185185,46.2962963 C18.5185185,30.9796296 30.9796296,18.5185185 46.2962963,18.5185185 C61.612963,18.5185185 74.0740741,30.9796296 74.0740741,46.2962963 C74.0740741,58.3148148 66.3981481,68.9148148 54.9777778,72.6703704 Z" id="Shape"></path>
                    <path d="M46.2962963,11.1111111 C47.3203704,11.1111111 48.1481481,10.2833333 48.1481481,9.25925926 L48.1481481,1.85185185 C48.1481481,0.827777778 47.3203704,0 46.2962963,0 C45.2722222,0 44.4444444,0.827777778 44.4444444,1.85185185 L44.4444444,9.25925926 C44.4444444,10.2833333 45.2722222,11.1111111 46.2962963,11.1111111 Z" id="Shape"></path>
                    <path d="M90.7407407,44.4444444 L83.3333333,44.4444444 C82.3092593,44.4444444 81.4814815,45.2722222 81.4814815,46.2962963 C81.4814815,47.3203704 82.3092593,48.1481481 83.3333333,48.1481481 L90.7407407,48.1481481 C91.7648148,48.1481481 92.5925926,47.3203704 92.5925926,46.2962963 C92.5925926,45.2722222 91.7648148,44.4444444 90.7407407,44.4444444 Z" id="Shape"></path>
                    <path d="M9.25925926,44.4444444 L1.85185185,44.4444444 C0.827777778,44.4444444 0,45.2722222 0,46.2962963 C0,47.3203704 0.827777778,48.1481481 1.85185185,48.1481481 L9.25925926,48.1481481 C10.2833333,48.1481481 11.1111111,47.3203704 11.1111111,46.2962963 C11.1111111,45.2722222 10.2833333,44.4444444 9.25925926,44.4444444 Z" id="Shape"></path>
                    <path d="M76.4148148,13.5592593 L71.1777778,18.7962963 C70.4537037,19.5203704 70.4537037,20.6907407 71.1777778,21.4148148 C71.5388889,21.7759259 72.012963,21.9574074 72.487037,21.9574074 C72.9611111,21.9574074 73.4351852,21.7759259 73.7962963,21.4148148 L79.0333333,16.1777778 C79.7574074,15.4537037 79.7574074,14.2833333 79.0333333,13.5592593 C78.3092593,12.8351852 77.137037,12.837037 76.4148148,13.5592593 Z" id="Shape"></path>
                    <path d="M18.7962963,71.1777778 L13.5592593,76.4148148 C12.8351852,77.1388889 12.8351852,78.3092593 13.5592593,79.0333333 C13.9203704,79.3944444 14.3944444,79.5759259 14.8685185,79.5759259 C15.3425926,79.5759259 15.8166667,79.3944444 16.1777778,79.0333333 L21.4148148,73.7962963 C22.1388889,73.0722222 22.1388889,71.9018519 21.4148148,71.1777778 C20.6907407,70.4537037 19.5203704,70.4537037 18.7962963,71.1777778 Z" id="Shape"></path>
                    <path d="M73.7962963,71.1777778 C73.0722222,70.4537037 71.9018519,70.4537037 71.1777778,71.1777778 C70.4537037,71.9018519 70.4537037,73.0722222 71.1777778,73.7962963 L76.4148148,79.0333333 C76.7759259,79.3944444 77.25,79.5759259 77.7240741,79.5759259 C78.1981481,79.5759259 78.6722222,79.3944444 79.0333333,79.0333333 C79.7574074,78.3092593 79.7574074,77.1388889 79.0333333,76.4148148 L73.7962963,71.1777778 Z" id="Shape"></path>
                    <path d="M18.7962963,21.4148148 C19.1574074,21.7759259 19.6314815,21.9574074 20.1055556,21.9574074 C20.5796296,21.9574074 21.0537037,21.7759259 21.4148148,21.4148148 C22.1388889,20.6907407 22.1388889,19.5203704 21.4148148,18.7962963 L16.1777778,13.5592593 C15.4537037,12.8351852 14.2833333,12.8351852 13.5592593,13.5592593 C12.8351852,14.2833333 12.8351852,15.4537037 13.5592593,16.1777778 L18.7962963,21.4148148 Z" id="Shape"></path>
                    <path d="M46.2962963,24.0740741 C34.0425926,24.0740741 24.0740741,34.0425926 24.0740741,46.2962963 C24.0740741,47.3203704 24.9018519,48.1481481 25.9259259,48.1481481 C26.95,48.1481481 27.7777778,47.3203704 27.7777778,46.2962963 C27.7777778,36.0851852 36.0851852,27.7777778 46.2962963,27.7777778 C47.3203704,27.7777778 48.1481481,26.95 48.1481481,25.9259259 C48.1481481,24.9018519 47.3203704,24.0740741 46.2962963,24.0740741 Z" id="Shape"></path>
                </g>
            </g>
        </g>
    </g>
</svg>