<?xml version="1.0" encoding="UTF-8"?>
<svg width="112px" height="100px" viewBox="0 0 112 100" version="1.1" xmlns="http://www.w3.org/2000/svg" xmlns:xlink="http://www.w3.org/1999/xlink">
    <!-- Generator: Sketch 51.3 (57544) - http://www.bohemiancoding.com/sketch -->
    <title>monitor</title>
    <desc>Created with Sketch.</desc>
    <defs></defs>
    <g id="austin-regnery.com" stroke="none" stroke-width="1" fill="none" fill-rule="evenodd">
        <g id="Home-Page" transform="translate(-942.000000, -4449.000000)" fill="#FFFFFF" fill-rule="nonzero">
            <g id="Specials" transform="translate(0.000000, 4233.000000)">
                <g id="monitor" transform="translate(942.000000, 216.000000)">
                    <path d="M105.041703,0.204585153 L6.74868996,0.204585153 C3.02751092,0.204585153 0,3.23209607 0,6.95327511 L0,74.8176856 C0,78.5388646 3.02751092,81.5663755 6.74868996,81.5663755 L40.4299127,81.5663755 L40.4299127,86.4768559 C40.4299127,90.9783843 36.7674672,94.6408297 32.2659389,94.6408297 L24.8430131,94.6408297 C23.419869,94.6408297 22.2659389,95.7945415 22.2659389,97.2179039 C22.2659389,98.6412664 23.419869,99.7949782 24.8430131,99.7949782 L86.9469432,99.7949782 C88.3700873,99.7949782 89.5240175,98.6412664 89.5240175,97.2179039 C89.5240175,95.7945415 88.3700873,94.6408297 86.9469432,94.6408297 L79.5237991,94.6408297 C75.0222707,94.6408297 71.3598253,90.9783843 71.3598253,86.4768559 L71.3598253,81.5665939 L105.041048,81.5665939 C108.762227,81.5665939 111.789956,78.539083 111.789956,74.8179039 L111.789956,6.95327511 C111.790393,3.23209607 108.762882,0.204585153 105.041703,0.204585153 Z M42.7772926,94.6412664 C44.5340611,92.3844978 45.5844978,89.5521834 45.5844978,86.4772926 L45.5844978,81.5668122 L66.2061135,81.5668122 L66.2061135,86.4772926 C66.2061135,89.5521834 67.2565502,92.3847162 69.0133188,94.6412664 L42.7772926,94.6412664 Z M106.636245,74.8179039 C106.636245,75.6971616 105.920961,76.4126638 105.041485,76.4126638 L6.74868996,76.4126638 C5.86943231,76.4126638 5.15393013,75.6973799 5.15393013,74.8179039 L5.15393013,61.2735808 L106.636245,61.2735808 L106.636245,74.8179039 Z M106.636463,56.119214 L5.15414847,56.119214 L5.15414847,6.95327511 C5.15414847,6.07401747 5.86943231,5.35851528 6.7489083,5.35851528 L105.041485,5.35851528 C105.920742,5.35851528 106.636463,6.07379913 106.636463,6.95327511 L106.636463,56.119214 Z" id="Shape"></path>
                    <circle id="Oval" cx="55.8958515" cy="68.8438865" r="2.78122271"></circle>
                    <path d="M60.3139738,17.9593886 C59.3074236,16.9530568 57.6762009,16.9530568 56.669214,17.9593886 L38.4565502,36.1720524 C37.4502183,37.1783843 37.4502183,38.810262 38.4565502,39.8168122 C38.9600437,40.3200873 39.619214,40.5716157 40.2790393,40.5716157 C40.9388646,40.5716157 41.5980349,40.3200873 42.10131,39.8168122 L60.3139738,21.6041485 C61.3203057,20.5978166 61.3203057,18.9659389 60.3139738,17.9593886 Z" id="Shape"></path>
                    <path d="M71.1087336,28.5137555 C70.1026201,27.5074236 68.4713974,27.5074236 67.4641921,28.5135371 L60.2087336,35.768559 C59.2024017,36.7751092 59.2024017,38.4069869 60.2087336,39.4133188 C60.7120087,39.9165939 61.3713974,40.1681223 62.0310044,40.1681223 C62.690393,40.1681223 63.35,39.9165939 63.8532751,39.4133188 L71.1087336,32.1582969 C72.1150655,31.1519651 72.1150655,29.5200873 71.1087336,28.5137555 Z" id="Shape"></path>
                </g>
            </g>
        </g>
    </g>
</svg>