<?xml version="1.0" encoding="UTF-8"?>
<svg width="248px" height="165px" viewBox="0 0 248 165" version="1.1" xmlns="http://www.w3.org/2000/svg" xmlns:xlink="http://www.w3.org/1999/xlink">
    <!-- Generator: Sketch 51.3 (57544) - http://www.bohemiancoding.com/sketch -->
    <title>setup</title>
    <desc>Created with Sketch.</desc>
    <defs></defs>
    <g id="austin-regnery.com" stroke="none" stroke-width="1" fill="none" fill-rule="evenodd">
        <g id="Artboard" transform="translate(-112.000000, -236.000000)" fill-rule="nonzero">
            <g id="setup" transform="translate(113.000000, 237.000000)">
                <path d="M240.716717,80 L239.813571,147 L241.047879,147 L243.000657,80 L240.716717,80 Z M239.730106,79 L244.030228,79 L242.019157,148 L238.8,148 L239.730106,79 Z M230.919095,80 L230.011134,162 L231.242812,162 L233.206,80 L230.919095,80 Z M229.930106,79 L234.230228,79 L232.219157,163 L229,163 L229.930106,79 Z" id="right-legs" fill="#FFFFFF" transform="translate(236.515114, 121.000000) scale(-1, 1) translate(-236.515114, -121.000000) "></path>
                <path d="M57.919095,80 L57.011134,162 L58.2428123,162 L60.2059997,80 L57.919095,80 Z M56.9301064,79 L61.2302276,79 L59.2191575,163 L56,163 L56.9301064,79 Z M68.9167175,80 L68.0135707,147 L69.2478788,147 L71.200657,80 L68.9167175,80 Z M67.9301064,79 L72.2302276,79 L70.2191575,148 L67,148 L67.9301064,79 Z" id="left-legs" fill="#FFFFFF"></path>
                <path d="M170.210777,80 C170.115456,79.6686218 170.018276,79.3352884 169.919237,79 L246,79 L246,75 L54,75 L54,79 L129.080763,79 C128.981724,79.3352884 128.884544,79.6686218 128.789223,80 L53,80 L53,74 L247,74 L247,80 L170.210777,80 Z" id="desk-top" fill="#FFFFFF"></path>
                <g id="plant" transform="translate(221.000000, 48.000000)">
                    <path d="M2.61143111,15.5 L4.43441976,24.5 L11.599678,24.5 L13.3906948,15.5 L2.61143111,15.5 Z" id="Rectangle-15" stroke="#FFFFFF"></path>
                    <path d="M7.51984324,13.1596929 C6.50661441,12.0134857 6,10.690382 6,9.19038205 C6,7.69038205 6.66519098,6.29358803 7.99557295,5" id="Line" stroke="#FFFFFF" stroke-linecap="square"></path>
                    <path d="M10.0724165,2.63197394 C9.87919642,2.83485493 9.85589167,3.49706743 10.1582244,4.61506033 C11.1720789,4.91570554 11.7499965,4.89261366 11.9203789,4.71371217 C12.1802624,4.44083458 12.4213085,3.48700837 12.5508599,1.94041734 C11.1723148,2.10728735 10.3249,2.36686628 10.0724165,2.63197394 Z M9.34827866,1.94231865 C9.89765167,1.36547718 11.3215552,0.996703821 13.6199891,0.835998569 C13.5190472,3.3040697 13.1938897,4.826526 12.6445167,5.40336747 C12.0951437,5.98020894 10.9963977,5.98020894 9.34827866,5.40336747 C8.79890564,3.67284306 8.79890564,2.51916012 9.34827866,1.94231865 Z" id="Rectangle-16" fill="#FFFFFF" transform="translate(11.278119, 3.335999) rotate(30.000000) translate(-11.278119, -3.335999) "></path>
                    <path d="M1.84998588,5.44617368 C1.65676583,5.64905467 1.63346108,6.31126716 1.93579386,7.42926007 C2.94964829,7.72990527 3.5275659,7.7068134 3.69794832,7.52791191 C3.95783183,7.25503432 4.19887789,6.30120811 4.32842932,4.75461708 C2.94988425,4.92148709 2.10246946,5.18106601 1.84998588,5.44617368 Z M1.12584807,4.75651839 C1.67522108,4.17967692 3.09912457,3.81090356 5.39755855,3.65019831 C5.29661662,6.11826943 4.97145915,7.64072573 4.42208614,8.2175672 C3.87271313,8.79440867 2.7739671,8.79440867 1.12584807,8.2175672 C0.576475056,6.4870428 0.576475056,5.33335986 1.12584807,4.75651839 Z" id="Rectangle-16" fill="#FFFFFF" transform="translate(3.055688, 6.150198) scale(-1, 1) rotate(20.000000) translate(-3.055688, -6.150198) "></path>
                </g>
                <path d="M198.565021,66.5 L199.300373,72.5 L203.604294,72.5 L203.863814,70.6176345 L205.638985,70.6176345 L205.638985,69.0548392 L204.07641,69.0548392 L204.426756,66.5 L198.565021,66.5 Z" id="coffee" stroke="#FFFFFF"></path>
                <path d="M167,72 L168,72 L168,73 L131,73 L131,72 L132,72 L132,71.5 L134,71.5 L134,72 L135,72 L135,71.5 L137,71.5 L137,72 L138,72 L138,71.5 L140,71.5 L140,72 L141,72 L141,71.5 L143,71.5 L143,72 L144,72 L144,71.5 L146,71.5 L146,72 L147,72 L147,71.5 L149,71.5 L149,72 L150,72 L150,71.5 L152,71.5 L152,72 L153,72 L153,71.5 L155,71.5 L155,72 L156,72 L156,71.5 L158,71.5 L158,72 L159,72 L159,71.5 L161,71.5 L161,72 L162,72 L162,71.5 L164,71.5 L164,72 L165,72 L165,71.5 L167,71.5 L167,72 Z" id="keyboard" fill="#FFFFFF"></path>
                <path d="M173.415498,72 L177.139698,72 C177.152054,71.393699 176.93866,70.9531494 176.505159,70.6063485 C175.955386,70.16653 175.126518,69.9349967 174,69.9433508 L174,71.4987577 L173.364802,71.9490815 L173.415498,72 Z M173.29298,72 L173,72 L173.18472,72.0767509 L173.29298,72 Z M173,69 C174.83209,68.8134029 176.208708,69.0885628 177.129854,69.8254797 C178.051,70.5623967 178.341049,71.6205701 178,73 L173,73 L171.822127,71.816952 L173,70.9818981 L173,69 Z" id="Rectangle-18" fill="#FFFFFF"></path>
                <path d="M13.6235374,52.8317871 L62.1767524,4.27857214 C61.4828307,3.96475389 61,3.26642478 61,2.45532452 C61,1.35075502 61.8954305,0.455324523 63,0.455324523 C64.1045695,0.455324523 65,1.35075502 65,2.45532452 C65,3.13885722 64.6571025,3.74230191 64.1339399,4.10302607 L77.9327007,16.0104577 C78.1213266,16.0034859 78.3104264,16 78.5,16 C85.6797017,16 92.1797017,21 98,31 L59,31 C64.6666185,21.2640411 70.9775187,16.267527 77.9327007,16.0104577 L64.1339399,4.10302607 C63.8116865,4.32522194 63.4210368,4.45532452 63,4.45532452 C62.7065308,4.45532452 62.4278245,4.39211668 62.1767524,4.27857214 L13.6235374,52.8317871 C13.8604358,53.160441 14,53.563922 14,54 C14,55.019088 13.2377996,55.8601545 12.2523688,55.9842297 L19.4617714,143.955325 L12.2523688,55.9842297 C12.1697105,55.9946372 12.0854815,56 12,56 C10.8954305,56 10,55.1045695 10,54 C10,52.8954305 10.8954305,52 12,52 C12.6684915,52 13.260381,52.3279726 13.6235374,52.8317871 Z M0,144 L39,144 L39,151 L0,151 L0,144 Z" id="lamp" stroke="#FFFFFF"></path>
                <path d="M130.724558,116.310786 C140.08039,126.146405 158.91961,126.146405 168.275442,116.310786 C174.374907,109.898529 174.445472,96.793077 168.266311,77 L130.733689,77 C124.554528,96.793077 124.625093,109.898529 130.724558,116.310786 Z M162.074363,121.949354 C154.382315,125.600215 144.617685,125.600215 136.925637,121.949354 L129.991727,159.590581 L129.008273,159.409419 L135.994512,121.484125 C135.630193,121.292714 135.271141,121.092724 134.917828,120.884157 L123.984401,163.623917 L123.015599,163.376083 L134.015599,120.376083 L134.147375,120.409794 C132.634247,119.438576 131.238467,118.301978 130,117 C123.5,110.166667 123.5,96.5 130,76 L169,76 C175.5,96.5 175.5,110.166667 169,117 C167.761533,118.301978 166.365753,119.438576 164.852625,120.409794 L164.984401,120.376083 L175.984401,163.376083 L175.015599,163.623917 L164.082172,120.884157 C163.728861,121.092723 163.36981,121.292712 163.005493,121.484123 L169.991727,159.409419 L169.008273,159.590581 L162.074363,121.949354 Z" id="chair" fill="#FFFFFF"></path>
                <path d="M96.3677913,71.5 L104.5,71.5 L104.5,53.5 L71.5,53.5 L71.5,71.5 L79.6322087,71.5 C82.3924256,68.8432938 85.1835813,67.5 88,67.5 C90.8164187,67.5 93.6075744,68.8432938 96.3677913,71.5 Z M147.5,61.5 L147.5,72.5 L151.5,72.5 L151.5,61.5 L147.5,61.5 Z M112.5,33.7210368 L112.5,62.4064543 C124.999645,60.2688441 137.499743,59.2 150,59.2 C162.500257,59.2 175.000355,60.2688441 187.5,62.4064543 L187.5,33.7210368 C174.999637,31.5736522 162.499738,30.5 150,30.5 C137.500262,30.5 125.000363,31.5736522 112.500006,33.7210358 Z M88,65.5 C86.6192881,65.5 85.5,64.3807119 85.5,63 C85.5,61.6192881 86.6192881,60.5 88,60.5 C89.3807119,60.5 90.5,61.6192881 90.5,63 C90.5,64.3807119 89.3807119,65.5 88,65.5 Z" id="laptop" stroke="#FFFFFF"></path>
                <path d="M118.126462,67.791253 C119.490347,66.9265758 120.500243,66.0131368 121.169167,65.0495429 C120.494181,66.0191115 119.484286,66.9304188 118.126462,67.791253 C117.242195,68.3518614 115.678029,68.7769985 113.445068,69.059856 C115.693293,68.7739873 117.246984,68.3488251 118.126462,67.791253 Z M121.169167,65.0495429 C121.838092,64.085949 122.166045,63.0722002 122.166045,62.0069033 L122.166045,61.4153613 L122.166045,62.0069033 C122.166045,63.0764636 121.835061,64.0921339 121.164621,65.0556227 L121.169167,65.0495429 Z M122.166045,60.6747865 L122.31345,60.8018512 L122.166045,60.8238193 L122.166045,61.4153613 L122.166045,60.6747865 Z M105.248516,70.4750132 C108.678704,70.4699188 111.493375,70.325207 113.70217,70.0349656 C111.364167,70.3410043 108.386256,70.4834756 104.748515,70.4747782 L104.248516,70.4735827 L104.250907,69.4735856 L105.250904,69.4759765 L105.248516,70.4750132 Z M123.166045,61.6858309 L123.166045,61.5367981 L123.31345,61.6638628 L123.166045,61.6858309 Z M104.748515,70.4747782 L104.248516,70.4735827 L104.250907,69.4735856 L104.750906,69.474781 C111.869799,69.4918015 116.357928,68.9124698 118.126462,67.791253 C120.842109,66.0695846 122.166045,64.1460239 122.166045,62.0069033 L122.166045,60.8238193 L123.166045,60.6747865 L123.166045,62.0069033 C123.166045,64.5322589 121.642073,66.7464552 118.661905,68.6358247 C116.671916,69.8974393 112.06373,70.4922681 104.748515,70.4747782 Z" id="cable" fill="#FFFFFF"></path>
                <path d="M79.0930227,72.5 L96.9069773,72.5 C93.9020371,69.1536585 90.9323386,67.5 88,67.5 C85.0676614,67.5 82.0979629,69.1536585 79.0930227,72.5 Z" id="holder" stroke="#FFFFFF"></path>
                <path d="M74,161.942777 L80,161.942777 L80,156.181639 C77.8751483,157.184158 77.8751483,157.180335 76.9072804,157.180335 C75.9394125,157.180335 75.941251,157.184158 74,156.181639 L74,161.942777 Z M73,155.705731 C74.3333333,154.568577 75.6666667,154 77,154 C78.3333333,154 79.6666667,154.568577 81,155.705731 L81,162.942777 L73,162.942777 L73,155.705731 Z M76,155 L76,156 L78,156 L78,155 L76,155 Z M74,161 L80,161 L80,162 L74,162 L74,161 Z M83,161.942777 L89,161.942777 L89,156.181639 C86.8751483,157.184158 86.8751483,157.180335 85.9072804,157.180335 C84.9394125,157.180335 84.941251,157.184158 83,156.181639 L83,161.942777 Z M82,155.705731 C83.3333333,154.568577 84.6666667,154 86,154 C87.3333333,154 88.6666667,154.568577 90,155.705731 L90,162.942777 L82,162.942777 L82,155.705731 Z M85,155 L85,156 L87,156 L87,155 L85,155 Z M83,161 L89,161 L89,162 L83,162 L83,161 Z" id="shoes" fill="#FFFFFF"></path>
                <path d="M201.134786,60.1585052 L201.476281,59.7932912 L202.206709,60.4762807 L201.865214,60.8414948 C201.346271,61.3964823 201.100217,61.8066715 201.100217,62 C201.100217,62.1933285 201.346271,62.6035177 201.865214,63.1585052 L202.206709,63.5237193 L201.476281,64.2067088 L201.134786,63.8414948 C200.454018,63.1134424 200.100217,62.5236317 200.100217,62 C200.100217,61.4763683 200.454018,60.8865576 201.134786,60.1585052 Z" id="steam" fill="#FFFFFF"></path>
            </g>
        </g>
    </g>
</svg>