<?xml version="1.0" encoding="UTF-8"?>
<svg width="73px" height="100px" viewBox="0 0 73 100" version="1.1" xmlns="http://www.w3.org/2000/svg" xmlns:xlink="http://www.w3.org/1999/xlink">
    <!-- Generator: Sketch 51.3 (57544) - http://www.bohemiancoding.com/sketch -->
    <title>tribune</title>
    <desc>Created with Sketch.</desc>
    <defs></defs>
    <g id="austin-regnery.com" stroke="none" stroke-width="1" fill="none" fill-rule="evenodd">
        <g id="Home-Page" transform="translate(-942.000000, -5011.000000)" fill="#FFFFFF" fill-rule="nonzero">
            <g id="Specials" transform="translate(0.000000, 4233.000000)">
                <g id="tribune" transform="translate(942.000000, 778.000000)">
                    <path d="M72.9278302,16.6103774 L46.2768868,16.6103774 L46.2768868,10.9528302 L51.4398585,5.78985849 C51.5643868,5.80613208 51.690566,5.81745283 51.8193396,5.81745283 C53.4233491,5.81745283 54.728066,4.5125 54.728066,2.90872642 C54.728066,1.30495283 53.4233491,0 51.8193396,0 C50.2153302,0 48.9103774,1.30495283 48.9103774,2.90872642 C48.9103774,3.03773585 48.9216981,3.16391509 48.9379717,3.2884434 L42.7391509,9.4875 L42.7391509,16.6103774 L38.2580189,16.6103774 L38.2580189,5.21273585 C38.9495283,4.68042453 39.3978774,3.84693396 39.3978774,2.90896226 C39.3978774,1.30495283 38.0931604,0 36.4891509,0 C34.8851415,0 33.5801887,1.30495283 33.5801887,2.90872642 C33.5801887,3.84693396 34.0285377,4.68042453 34.720283,5.2125 L34.720283,16.6101415 L30.2391509,16.6101415 L30.2391509,9.4875 L24.0400943,3.28820755 C24.0563679,3.16367925 24.0676887,3.0375 24.0676887,2.90872642 C24.0676887,1.30495283 22.7629717,0 21.1589623,0 C19.5549528,0 18.25,1.30495283 18.25,2.90872642 C18.25,4.5125 19.5549528,5.81745283 21.1589623,5.81745283 C21.2879717,5.81745283 21.4139151,5.80613208 21.5384434,5.78985849 L26.7014151,10.9528302 L26.7014151,16.6103774 L0.0504716981,16.6103774 L0.0504716981,31.4858491 L6.18254717,31.4858491 L6.18254717,99.8650943 L66.7957547,99.8650943 L66.7957547,31.4858491 L72.9278302,31.4858491 L72.9278302,16.6103774 Z M63.2580189,96.3273585 L9.72028302,96.3273585 L9.72028302,31.4858491 L63.2580189,31.4858491 L63.2580189,96.3273585 Z M69.3900943,27.9481132 L66.7957547,27.9481132 L6.18254717,27.9481132 L3.58820755,27.9481132 L3.58820755,20.1481132 L69.3900943,20.1481132 L69.3900943,27.9481132 Z" id="Shape"></path>
                    <path d="M53.1165094,34.8662736 L19.8617925,34.8662736 L19.8617925,52.8693396 L53.1165094,52.8693396 L53.1165094,34.8662736 Z M49.5787736,49.3318396 L23.3995283,49.3318396 L23.3995283,38.4042453 L49.5787736,38.4042453 L49.5787736,49.3318396 Z" id="Shape"></path>
                    <rect id="Rectangle-path" x="27.9985849" y="42.0990566" width="16.9811321" height="3.53773585"></rect>
                </g>
            </g>
        </g>
    </g>
</svg>